<?xml version="1.0" encoding="UTF-8" standalone="no"?>
<!DOCTYPE svg PUBLIC "-//W3C//DTD SVG 1.1//EN"
 "http://www.w3.org/Graphics/SVG/1.1/DTD/svg11.dtd">
<!-- Generated by graphviz version 2.26.3 (20100126.1600)
 -->
<!-- Title: _anonymous_0 Pages: 1 -->
<svg width="2662pt" height="4544pt"
 viewBox="0.00 0.00 2662.00 4544.00" xmlns="http://www.w3.org/2000/svg" xmlns:xlink="http://www.w3.org/1999/xlink">
<g id="graph1" class="graph" transform="scale(1 1) rotate(0) translate(4 4540)">
<title>_anonymous_0</title>
<polygon fill="white" stroke="white" points="-4,5 -4,-4540 2659,-4540 2659,5 -4,5"/>
<g id="graph2" class="cluster"><title>cluster_b512d97e7c</title>
<polygon fill="lightblue" stroke="black" points="8,-3676 8,-3921 246,-3921 246,-3676 8,-3676"/>
<text text-anchor="middle" x="127" y="-3904.4" font-family="Roboto" font-size="14.00">User</text>
</g>
<g id="graph3" class="cluster"><title>cluster_ab74b86763</title>
<polygon fill="white" stroke="black" points="16,-3694 16,-3888 238,-3888 238,-3694 16,-3694"/>
</g>
<g id="graph4" class="cluster"><title>cluster_32d7e82082</title>
<polygon fill="lightblue" stroke="black" points="358,-3676 358,-4179 1300,-4179 1300,-3676 358,-3676"/>
<text text-anchor="middle" x="829" y="-4162.4" font-family="Roboto" font-size="14.00">Control</text>
</g>
<g id="graph5" class="cluster"><title>cluster_343d4724ee</title>
<polygon fill="white" stroke="black" points="366,-3694 366,-4146 588,-4146 588,-3694 366,-3694"/>
</g>
<g id="graph6" class="cluster"><title>cluster_e03e1cf1ae</title>
<polygon fill="white" stroke="black" points="716,-3885 716,-4141 938,-4141 938,-3885 716,-3885"/>
</g>
<g id="graph7" class="cluster"><title>cluster_b5348d5536</title>
<polygon fill="white" stroke="black" points="1066,-3823 1066,-4141 1292,-4141 1292,-3823 1066,-3823"/>
</g>
<g id="graph8" class="cluster"><title>cluster_e1d2439aa6</title>
<polygon fill="lightblue" stroke="black" points="708,-1937 708,-3668 2646,-3668 2646,-1937 708,-1937"/>
<text text-anchor="middle" x="1677" y="-3651.4" font-family="Roboto" font-size="14.00">Trench</text>
</g>
<g id="graph9" class="cluster"><title>cluster_b4a25f5730</title>
<polygon fill="white" stroke="black" points="716,-1955 716,-3635 938,-3635 938,-1955 716,-1955"/>
</g>
<g id="graph10" class="cluster"><title>cluster_fdad8221b7</title>
<polygon fill="white" stroke="black" points="1068,-3397 1068,-3635 1290,-3635 1290,-3397 1068,-3397"/>
</g>
<g id="graph11" class="cluster"><title>cluster_ead43c5f26</title>
<polygon fill="white" stroke="black" points="1420,-3379 1420,-3635 1642,-3635 1642,-3379 1420,-3379"/>
</g>
<g id="graph12" class="cluster"><title>cluster_c1d0c57359</title>
<polygon fill="white" stroke="black" points="1770,-3379 1770,-3635 1992,-3635 1992,-3379 1770,-3379"/>
</g>
<g id="graph13" class="cluster"><title>cluster_752b2f4d04</title>
<polygon fill="white" stroke="black" points="2120,-3379 2120,-3635 2342,-3635 2342,-3379 2120,-3379"/>
</g>
<g id="graph14" class="cluster"><title>cluster_029acb3333</title>
<polygon fill="white" stroke="black" points="2470,-3529 2470,-3635 2638,-3635 2638,-3529 2470,-3529"/>
</g>
<g id="graph15" class="cluster"><title>cluster_fbf615aa20</title>
<polygon fill="lightblue" stroke="black" points="1060,-8 1060,-995 1650,-995 1650,-8 1060,-8"/>
<text text-anchor="middle" x="1355" y="-978.4" font-family="Roboto" font-size="14.00">Spit</text>
</g>
<g id="graph16" class="cluster"><title>cluster_7221a07877</title>
<polygon fill="white" stroke="black" points="1068,-26 1068,-962 1290,-962 1290,-26 1068,-26"/>
</g>
<g id="graph17" class="cluster"><title>cluster_8c55645982</title>
<polygon fill="white" stroke="black" points="1420,-786 1420,-962 1642,-962 1642,-786 1420,-786"/>
</g>
<g id="graph18" class="cluster"><title>cluster_eb7fe0e747</title>
<polygon fill="lightblue" stroke="black" points="1060,-1470 1060,-1929 1298,-1929 1298,-1470 1060,-1470"/>
<text text-anchor="middle" x="1179" y="-1912.4" font-family="Roboto" font-size="14.00">Photograph Log</text>
</g>
<g id="graph19" class="cluster"><title>cluster_b43beaa1c7</title>
<polygon fill="white" stroke="black" points="1068,-1488 1068,-1896 1290,-1896 1290,-1488 1068,-1488"/>
</g>
<g id="graph20" class="cluster"><title>cluster_8a7525b149</title>
<polygon fill="lightblue" stroke="black" points="1060,-1003 1060,-1462 1298,-1462 1298,-1003 1060,-1003"/>
<text text-anchor="middle" x="1179" y="-1445.4" font-family="Roboto" font-size="14.00">Notes</text>
</g>
<g id="graph21" class="cluster"><title>cluster_a45d95fc08</title>
<polygon fill="white" stroke="black" points="1068,-1021 1068,-1429 1290,-1429 1290,-1021 1068,-1021"/>
</g>
<g id="graph22" class="cluster"><title>cluster_1b0fa42abe</title>
<polygon fill="lightblue" stroke="black" points="8,-3929 8,-4528 246,-4528 246,-3929 8,-3929"/>
<text text-anchor="middle" x="127" y="-4511.4" font-family="Roboto" font-size="14.00">Artefact</text>
</g>
<g id="graph23" class="cluster"><title>cluster_6495668e54</title>
<polygon fill="white" stroke="black" points="16,-3947 16,-4495 238,-4495 238,-3947 16,-3947"/>
</g>
<!-- _b512d97e7c -->
<g id="node2" class="node"><title>_b512d97e7c</title>
</g>
<!-- struct_Label_ab74b86763 -->
<g id="node4" class="node"><title>struct_Label_ab74b86763</title>
<polygon fill="none" stroke="black" points="51.5,-3846.5 51.5,-3877.5 202.5,-3877.5 202.5,-3846.5 51.5,-3846.5"/>
<polygon fill="black" stroke="black" points="53,-3847 53,-3876 55,-3876 55,-3847 53,-3847"/>
<polygon fill="black" stroke="black" points="53,-3876 53,-3874 98,-3874 98,-3876 53,-3876"/>
<polygon fill="black" stroke="black" points="98,-3876 98,-3847 96,-3847 96,-3876 98,-3876"/>
<polygon fill="black" stroke="black" points="98,-3847 98,-3849 53,-3849 53,-3847 98,-3847"/>
<text text-anchor="start" x="61.5" y="-3858.7" font-family="Roboto" font-size="12.00">User</text>
</g>
<!-- struct_Elems_639e8cc20c -->
<g id="node5" class="node"><title>struct_Elems_639e8cc20c</title>
<image xlink:href="User_User_Select_User.svg" width="200px" height="120px" preserveAspectRatio="xMinYMin meet" x="27.5" y="-3823.5"/>
</g>
<!-- _32d7e82082 -->
<g id="node7" class="node"><title>_32d7e82082</title>
</g>
<!-- struct_Label_343d4724ee -->
<g id="node9" class="node"><title>struct_Label_343d4724ee</title>
<polygon fill="none" stroke="black" points="401.5,-4091.5 401.5,-4138.5 552.5,-4138.5 552.5,-4091.5 401.5,-4091.5"/>
<polygon fill="black" stroke="black" points="403,-4092 403,-4137 405,-4137 405,-4092 403,-4092"/>
<polygon fill="black" stroke="black" points="403,-4137 403,-4135 484,-4135 484,-4137 403,-4137"/>
<polygon fill="black" stroke="black" points="484,-4137 484,-4092 482,-4092 482,-4137 484,-4137"/>
<polygon fill="black" stroke="black" points="484,-4092 484,-4094 403,-4094 403,-4092 484,-4092"/>
<text text-anchor="start" x="411.5" y="-4119.7" font-family="Roboto" font-size="12.00">Excavation</text>
<text text-anchor="start" x="429.5" y="-4105.3" font-family="Roboto" font-size="12.00">Data</text>
<polygon fill="none" stroke="black" points="484,-4092 484,-4137 508,-4137 508,-4092 484,-4092"/>
<text text-anchor="start" x="490" y="-4111.7" font-family="Roboto" font-size="12.00">...</text>
</g>
<!-- struct_Elems_7059241c74 -->
<g id="node10" class="node"><title>struct_Elems_7059241c74</title>
<image xlink:href="Control_Excavation_Data_Job_Name.svg" width="200px" height="40px" preserveAspectRatio="xMinYMin meet" x="377.5" y="-4071.5"/>
</g>
<!-- struct_Elems_ebf4bcb27a -->
<g id="node11" class="node"><title>struct_Elems_ebf4bcb27a</title>
<image xlink:href="Control_Excavation_Data_Next_Artefact_ID.svg" width="200px" height="40px" preserveAspectRatio="xMinYMin meet" x="377.5" y="-4009.5"/>
</g>
<!-- struct_Elems_9af7ca0503 -->
<g id="node12" class="node"><title>struct_Elems_9af7ca0503</title>
<image xlink:href="Control_Excavation_Data_Next_Spit_ID.svg" width="200px" height="40px" preserveAspectRatio="xMinYMin meet" x="377.5" y="-3947.5"/>
</g>
<!-- struct_Elems_d1b5ccddef -->
<g id="node13" class="node"><title>struct_Elems_d1b5ccddef</title>
<image xlink:href="Control_Excavation_Data_New_Trench.svg" width="200px" height="40px" preserveAspectRatio="xMinYMin meet" x="377.5" y="-3885.5"/>
</g>
<!-- struct_Elems_0f401b0293 -->
<g id="node14" class="node"><title>struct_Elems_0f401b0293</title>
<image xlink:href="Control_Excavation_Data_List_of_Trenches.svg" width="200px" height="120px" preserveAspectRatio="xMinYMin meet" x="377.5" y="-3823.5"/>
</g>
<!-- struct_Label_e03e1cf1ae -->
<g id="node16" class="node"><title>struct_Label_e03e1cf1ae</title>
<polygon fill="none" stroke="black" points="751.5,-4099.5 751.5,-4130.5 902.5,-4130.5 902.5,-4099.5 751.5,-4099.5"/>
<polygon fill="none" stroke="black" points="753,-4100 753,-4129 778,-4129 778,-4100 753,-4100"/>
<text text-anchor="start" x="759.5" y="-4111.7" font-family="Roboto" font-size="12.00">...</text>
<polygon fill="black" stroke="black" points="778,-4100 778,-4129 780,-4129 780,-4100 778,-4100"/>
<polygon fill="black" stroke="black" points="778,-4129 778,-4127 823,-4127 823,-4129 778,-4129"/>
<polygon fill="black" stroke="black" points="823,-4129 823,-4100 821,-4100 821,-4129 823,-4129"/>
<polygon fill="black" stroke="black" points="823,-4100 823,-4102 778,-4102 778,-4100 823,-4100"/>
<text text-anchor="start" x="786" y="-4111.7" font-family="Roboto" font-size="12.00">Spits</text>
<polygon fill="none" stroke="black" points="823,-4100 823,-4129 847,-4129 847,-4100 823,-4100"/>
<text text-anchor="start" x="829" y="-4111.7" font-family="Roboto" font-size="12.00">...</text>
</g>
<!-- struct_Elems_4e003d6469 -->
<g id="node17" class="node"><title>struct_Elems_4e003d6469</title>
<image xlink:href="Control_Spits_New_Spit.svg" width="200px" height="40px" preserveAspectRatio="xMinYMin meet" x="727.5" y="-4076.5"/>
</g>
<!-- struct_Elems_4884063e6d -->
<g id="node18" class="node"><title>struct_Elems_4884063e6d</title>
<image xlink:href="Control_Spits_List_of_Spits.svg" width="200px" height="120px" preserveAspectRatio="xMinYMin meet" x="727.5" y="-4014.5"/>
</g>
<!-- struct_Label_b5348d5536 -->
<g id="node20" class="node"><title>struct_Label_b5348d5536</title>
<polygon fill="none" stroke="black" points="1103.5,-4099.5 1103.5,-4130.5 1254.5,-4130.5 1254.5,-4099.5 1103.5,-4099.5"/>
<polygon fill="none" stroke="black" points="1105,-4100 1105,-4129 1130,-4129 1130,-4100 1105,-4100"/>
<text text-anchor="start" x="1111.5" y="-4111.7" font-family="Roboto" font-size="12.00">...</text>
<polygon fill="black" stroke="black" points="1130,-4100 1130,-4129 1132,-4129 1132,-4100 1130,-4100"/>
<polygon fill="black" stroke="black" points="1130,-4129 1130,-4127 1187,-4127 1187,-4129 1130,-4129"/>
<polygon fill="black" stroke="black" points="1187,-4129 1187,-4100 1185,-4100 1185,-4129 1187,-4129"/>
<polygon fill="black" stroke="black" points="1187,-4100 1187,-4102 1130,-4102 1130,-4100 1187,-4100"/>
<text text-anchor="start" x="1138" y="-4111.7" font-family="Roboto" font-size="12.00">Search</text>
</g>
<!-- struct_Elems_98a8f05303 -->
<g id="node21" class="node"><title>struct_Elems_98a8f05303</title>
<image xlink:href="Control_Search_Search_Term.svg" width="100px" height="40px" preserveAspectRatio="xMinYMin meet" x="1077.5" y="-4076.5"/>
<image xlink:href="Control_Search_Search_Button.svg" width="100px" height="40px" preserveAspectRatio="xMinYMin meet" x="1182" y="-4076.5"/>
</g>
<!-- struct_Elems_18e4ee8dff -->
<g id="node22" class="node"><title>struct_Elems_18e4ee8dff</title>
<image xlink:href="Control_Search_Entity_Types.svg" width="200px" height="40px" preserveAspectRatio="xMinYMin meet" x="1079.5" y="-4014.5"/>
</g>
<!-- struct_Elems_89e10496a5 -->
<g id="node23" class="node"><title>struct_Elems_89e10496a5</title>
<image xlink:href="Control_Search_Entity_List.svg" width="200px" height="120px" preserveAspectRatio="xMinYMin meet" x="1079.5" y="-3952.5"/>
</g>
<!-- _e1d2439aa6 -->
<g id="node25" class="node"><title>_e1d2439aa6</title>
</g>
<!-- struct_Label_b4a25f5730 -->
<g id="node27" class="node"><title>struct_Label_b4a25f5730</title>
<polygon fill="none" stroke="black" points="751.5,-3593.5 751.5,-3624.5 902.5,-3624.5 902.5,-3593.5 751.5,-3593.5"/>
<polygon fill="black" stroke="black" points="753,-3594 753,-3623 755,-3623 755,-3594 753,-3594"/>
<polygon fill="black" stroke="black" points="753,-3623 753,-3621 837,-3621 837,-3623 753,-3623"/>
<polygon fill="black" stroke="black" points="837,-3623 837,-3594 835,-3594 835,-3623 837,-3623"/>
<polygon fill="black" stroke="black" points="837,-3594 837,-3596 753,-3596 753,-3594 837,-3594"/>
<text text-anchor="start" x="761.5" y="-3605.7" font-family="Roboto" font-size="12.00">Trench Info</text>
<polygon fill="none" stroke="black" points="837,-3594 837,-3623 861,-3623 861,-3594 837,-3594"/>
<text text-anchor="start" x="843" y="-3605.7" font-family="Roboto" font-size="12.00">...</text>
</g>
<!-- struct_Elems_5904a19437 -->
<g id="node28" class="node"><title>struct_Elems_5904a19437</title>
<image xlink:href="Trench_Trench_Info_Job_Name.svg" width="200px" height="40px" preserveAspectRatio="xMinYMin meet" x="727.5" y="-3570.5"/>
</g>
<!-- struct_Elems_eafce326b7 -->
<g id="node29" class="node"><title>struct_Elems_eafce326b7</title>
</g>
<!-- struct_Elems_fd2826436b -->
<g id="node30" class="node"><title>struct_Elems_fd2826436b</title>
<image xlink:href="Trench_Trench_Info_Trench_ID.svg" width="200px" height="40px" preserveAspectRatio="xMinYMin meet" x="727.5" y="-3454.5"/>
</g>
<!-- struct_Elems_1daf0d1d5e -->
<g id="node31" class="node"><title>struct_Elems_1daf0d1d5e</title>
<image xlink:href="Trench_Trench_Info_Latitude.svg" width="100px" height="40px" preserveAspectRatio="xMinYMin meet" x="742.5" y="-3392.5"/>
<image xlink:href="Trench_Trench_Info_Northing.svg" width="66px" height="40px" preserveAspectRatio="xMinYMin meet" x="847" y="-3392.5"/>
<image xlink:href="Trench_Trench_Info_Longitude.svg" width="100px" height="40px" preserveAspectRatio="xMinYMin meet" x="742.5" y="-3348"/>
<image xlink:href="Trench_Trench_Info_Easting.svg" width="66px" height="40px" preserveAspectRatio="xMinYMin meet" x="847" y="-3348"/>
</g>
<!-- struct_Elems_de69878b26 -->
<g id="node32" class="node"><title>struct_Elems_de69878b26</title>
<image xlink:href="Trench_Trench_Info_Take_From_GPS.svg" width="200px" height="40px" preserveAspectRatio="xMinYMin meet" x="727.5" y="-3286.5"/>
</g>
<!-- struct_Elems_7fb1abb857 -->
<g id="node33" class="node"><title>struct_Elems_7fb1abb857</title>
<image xlink:href="Trench_Trench_Info_Dimensions.svg" width="200px" height="40px" preserveAspectRatio="xMinYMin meet" x="727.5" y="-3224.5"/>
</g>
<!-- struct_Elems_d566885a45 -->
<g id="node34" class="node"><title>struct_Elems_d566885a45</title>
<image xlink:href="Trench_Trench_Info_Artefacts_Present.svg" width="200px" height="40px" preserveAspectRatio="xMinYMin meet" x="727.5" y="-3162.5"/>
</g>
<!-- struct_Elems_83dd45d542 -->
<g id="node35" class="node"><title>struct_Elems_83dd45d542</title>
<image xlink:href="Trench_Trench_Info_Landform_Genesis.svg" width="200px" height="100px" preserveAspectRatio="xMinYMin meet" x="727.5" y="-3100.5"/>
</g>
<!-- struct_Elems_ba09074e1d -->
<g id="node36" class="node"><title>struct_Elems_ba09074e1d</title>
<image xlink:href="Trench_Trench_Info_Landform_Element.svg" width="200px" height="100px" preserveAspectRatio="xMinYMin meet" x="727.5" y="-2978.5"/>
</g>
<!-- struct_Elems_cf71bb4b2b -->
<g id="node37" class="node"><title>struct_Elems_cf71bb4b2b</title>
<image xlink:href="Trench_Trench_Info_Fill_Slope_Details.svg" width="200px" height="40px" preserveAspectRatio="xMinYMin meet" x="727.5" y="-2856.5"/>
</g>
<!-- struct_Elems_5079ca5095 -->
<g id="node38" class="node"><title>struct_Elems_5079ca5095</title>
<image xlink:href="Trench_Trench_Info_Geomorphic_Context.svg" width="200px" height="40px" preserveAspectRatio="xMinYMin meet" x="727.5" y="-2794.5"/>
</g>
<!-- struct_Elems_0c7b2efbde -->
<g id="node39" class="node"><title>struct_Elems_0c7b2efbde</title>
<image xlink:href="Trench_Trench_Info_Aspect.svg" width="200px" height="40px" preserveAspectRatio="xMinYMin meet" x="727.5" y="-2732.5"/>
</g>
<!-- struct_Elems_891994d8fc -->
<g id="node40" class="node"><title>struct_Elems_891994d8fc</title>
<image xlink:href="Trench_Trench_Info_Distance_To_Water.svg" width="200px" height="40px" preserveAspectRatio="xMinYMin meet" x="727.5" y="-2670.5"/>
</g>
<!-- struct_Elems_f24bffcd4d -->
<g id="node41" class="node"><title>struct_Elems_f24bffcd4d</title>
<image xlink:href="Trench_Trench_Info_Samples_Collected.svg" width="200px" height="100px" preserveAspectRatio="xMinYMin meet" x="727.5" y="-2608.5"/>
</g>
<!-- struct_Elems_68656049da -->
<g id="node42" class="node"><title>struct_Elems_68656049da</title>
<image xlink:href="Trench_Trench_Info_Samples_Details.svg" width="200px" height="40px" preserveAspectRatio="xMinYMin meet" x="727.5" y="-2486.5"/>
</g>
<!-- struct_Elems_b99eb5faa6 -->
<g id="node43" class="node"><title>struct_Elems_b99eb5faa6</title>
<image xlink:href="Trench_Trench_Info_Take_Photo.svg" width="200px" height="125px" preserveAspectRatio="xMinYMin meet" x="727.5" y="-2424.5"/>
</g>
<!-- struct_Elems_12049c16ec -->
<g id="node44" class="node"><title>struct_Elems_12049c16ec</title>
<image xlink:href="Trench_Trench_Info_Button_Take_Photo.svg" width="200px" height="40px" preserveAspectRatio="xMinYMin meet" x="727.5" y="-2276.5"/>
</g>
<!-- struct_Elems_a346af6bd8 -->
<g id="node45" class="node"><title>struct_Elems_a346af6bd8</title>
<image xlink:href="Trench_Trench_Info_Attach_Sketches.svg" width="200px" height="125px" preserveAspectRatio="xMinYMin meet" x="727.5" y="-2214.5"/>
</g>
<!-- struct_Elems_56782e428e -->
<g id="node46" class="node"><title>struct_Elems_56782e428e</title>
<image xlink:href="Trench_Trench_Info_Button_Attach_Sketches.svg" width="200px" height="40px" preserveAspectRatio="xMinYMin meet" x="727.5" y="-2066.5"/>
</g>
<!-- struct_Elems_ce618de0b9 -->
<g id="node47" class="node"><title>struct_Elems_ce618de0b9</title>
<image xlink:href="Trench_Trench_Info_View_Attached_Files.svg" width="200px" height="40px" preserveAspectRatio="xMinYMin meet" x="727.5" y="-2004.5"/>
</g>
<!-- struct_Label_fdad8221b7 -->
<g id="node49" class="node"><title>struct_Label_fdad8221b7</title>
<polygon fill="none" stroke="black" points="1103.5,-3593.5 1103.5,-3624.5 1254.5,-3624.5 1254.5,-3593.5 1103.5,-3593.5"/>
<polygon fill="none" stroke="black" points="1105,-3594 1105,-3623 1130,-3623 1130,-3594 1105,-3594"/>
<text text-anchor="start" x="1111.5" y="-3605.7" font-family="Roboto" font-size="12.00">...</text>
<polygon fill="black" stroke="black" points="1130,-3594 1130,-3623 1132,-3623 1132,-3594 1130,-3594"/>
<polygon fill="black" stroke="black" points="1130,-3623 1130,-3621 1178,-3621 1178,-3623 1130,-3623"/>
<polygon fill="black" stroke="black" points="1178,-3623 1178,-3594 1176,-3594 1176,-3623 1178,-3623"/>
<polygon fill="black" stroke="black" points="1178,-3594 1178,-3596 1130,-3596 1130,-3594 1178,-3594"/>
<text text-anchor="start" x="1138" y="-3605.7" font-family="Roboto" font-size="12.00">Slope</text>
<polygon fill="none" stroke="black" points="1178,-3594 1178,-3623 1202,-3623 1202,-3594 1178,-3594"/>
<text text-anchor="start" x="1184" y="-3605.7" font-family="Roboto" font-size="12.00">...</text>
</g>
<!-- struct_Elems_09b8cfe7b2 -->
<g id="node50" class="node"><title>struct_Elems_09b8cfe7b2</title>
<image xlink:href="Trench_Slope_Slope_Degree.svg" width="200px" height="40px" preserveAspectRatio="xMinYMin meet" x="1079.5" y="-3570.5"/>
</g>
<!-- struct_Elems_fd7c3a2a36 -->
<g id="node51" class="node"><title>struct_Elems_fd7c3a2a36</title>
<image xlink:href="Trench_Slope_Slope_Detail.svg" width="200px" height="40px" preserveAspectRatio="xMinYMin meet" x="1079.5" y="-3508.5"/>
</g>
<!-- struct_Elems_98e17441f3 -->
<g id="node52" class="node"><title>struct_Elems_98e17441f3</title>
<image xlink:href="Trench_Slope_Slope_Detail_2.svg" width="200px" height="40px" preserveAspectRatio="xMinYMin meet" x="1079.5" y="-3446.5"/>
</g>
<!-- struct_Label_ead43c5f26 -->
<g id="node54" class="node"><title>struct_Label_ead43c5f26</title>
<polygon fill="none" stroke="black" points="1455.5,-3593.5 1455.5,-3624.5 1606.5,-3624.5 1606.5,-3593.5 1455.5,-3593.5"/>
<polygon fill="none" stroke="black" points="1457,-3594 1457,-3623 1482,-3623 1482,-3594 1457,-3594"/>
<text text-anchor="start" x="1463.5" y="-3605.7" font-family="Roboto" font-size="12.00">...</text>
<polygon fill="black" stroke="black" points="1482,-3594 1482,-3623 1484,-3623 1484,-3594 1482,-3594"/>
<polygon fill="black" stroke="black" points="1482,-3623 1482,-3621 1527,-3621 1527,-3623 1482,-3623"/>
<polygon fill="black" stroke="black" points="1527,-3623 1527,-3594 1525,-3594 1525,-3623 1527,-3623"/>
<polygon fill="black" stroke="black" points="1527,-3594 1527,-3596 1482,-3596 1482,-3594 1527,-3594"/>
<text text-anchor="start" x="1490" y="-3605.7" font-family="Roboto" font-size="12.00">Spits</text>
<polygon fill="none" stroke="black" points="1527,-3594 1527,-3623 1551,-3623 1551,-3594 1527,-3594"/>
<text text-anchor="start" x="1533" y="-3605.7" font-family="Roboto" font-size="12.00">...</text>
</g>
<!-- struct_Elems_f96e494002 -->
<g id="node55" class="node"><title>struct_Elems_f96e494002</title>
<image xlink:href="Trench_Spits_New_Spit.svg" width="200px" height="40px" preserveAspectRatio="xMinYMin meet" x="1431.5" y="-3570.5"/>
</g>
<!-- struct_Elems_404feccbd5 -->
<g id="node56" class="node"><title>struct_Elems_404feccbd5</title>
<image xlink:href="Trench_Spits_List_of_Spits.svg" width="200px" height="120px" preserveAspectRatio="xMinYMin meet" x="1431.5" y="-3508.5"/>
</g>
<!-- struct_Label_c1d0c57359 -->
<g id="node58" class="node"><title>struct_Label_c1d0c57359</title>
<polygon fill="none" stroke="black" points="1805.5,-3593.5 1805.5,-3624.5 1956.5,-3624.5 1956.5,-3593.5 1805.5,-3593.5"/>
<polygon fill="none" stroke="black" points="1807,-3594 1807,-3623 1832,-3623 1832,-3594 1807,-3594"/>
<text text-anchor="start" x="1813.5" y="-3605.7" font-family="Roboto" font-size="12.00">...</text>
<polygon fill="black" stroke="black" points="1832,-3594 1832,-3623 1834,-3623 1834,-3594 1832,-3594"/>
<polygon fill="black" stroke="black" points="1832,-3623 1832,-3621 1905,-3621 1905,-3623 1832,-3623"/>
<polygon fill="black" stroke="black" points="1905,-3623 1905,-3594 1903,-3594 1903,-3623 1905,-3623"/>
<polygon fill="black" stroke="black" points="1905,-3594 1905,-3596 1832,-3596 1832,-3594 1905,-3594"/>
<text text-anchor="start" x="1840" y="-3605.7" font-family="Roboto" font-size="12.00">PhotoLog</text>
<polygon fill="none" stroke="black" points="1905,-3594 1905,-3623 1929,-3623 1929,-3594 1905,-3594"/>
<text text-anchor="start" x="1911" y="-3605.7" font-family="Roboto" font-size="12.00">...</text>
</g>
<!-- struct_Elems_cea508e93e -->
<g id="node59" class="node"><title>struct_Elems_cea508e93e</title>
<image xlink:href="Trench_PhotoLog_New_Photograph_Log.svg" width="200px" height="40px" preserveAspectRatio="xMinYMin meet" x="1781.5" y="-3570.5"/>
</g>
<!-- struct_Elems_3bc76c57ff -->
<g id="node60" class="node"><title>struct_Elems_3bc76c57ff</title>
<image xlink:href="Trench_PhotoLog_List_of_Photograph_Logs.svg" width="200px" height="120px" preserveAspectRatio="xMinYMin meet" x="1781.5" y="-3508.5"/>
</g>
<!-- struct_Label_752b2f4d04 -->
<g id="node62" class="node"><title>struct_Label_752b2f4d04</title>
<polygon fill="none" stroke="black" points="2155.5,-3593.5 2155.5,-3624.5 2306.5,-3624.5 2306.5,-3593.5 2155.5,-3593.5"/>
<polygon fill="none" stroke="black" points="2157,-3594 2157,-3623 2182,-3623 2182,-3594 2157,-3594"/>
<text text-anchor="start" x="2163.5" y="-3605.7" font-family="Roboto" font-size="12.00">...</text>
<polygon fill="black" stroke="black" points="2182,-3594 2182,-3623 2184,-3623 2184,-3594 2182,-3594"/>
<polygon fill="black" stroke="black" points="2182,-3623 2182,-3621 2233,-3621 2233,-3623 2182,-3623"/>
<polygon fill="black" stroke="black" points="2233,-3623 2233,-3594 2231,-3594 2231,-3623 2233,-3623"/>
<polygon fill="black" stroke="black" points="2233,-3594 2233,-3596 2182,-3596 2182,-3594 2233,-3594"/>
<text text-anchor="start" x="2190" y="-3605.7" font-family="Roboto" font-size="12.00">Notes</text>
<polygon fill="none" stroke="black" points="2233,-3594 2233,-3623 2257,-3623 2257,-3594 2233,-3594"/>
<text text-anchor="start" x="2239" y="-3605.7" font-family="Roboto" font-size="12.00">...</text>
</g>
<!-- struct_Elems_8c40614796 -->
<g id="node63" class="node"><title>struct_Elems_8c40614796</title>
<image xlink:href="Trench_Notes_New_Note.svg" width="200px" height="40px" preserveAspectRatio="xMinYMin meet" x="2131.5" y="-3570.5"/>
</g>
<!-- struct_Elems_e6a8da311a -->
<g id="node64" class="node"><title>struct_Elems_e6a8da311a</title>
<image xlink:href="Trench_Notes_List_of_Notes.svg" width="200px" height="120px" preserveAspectRatio="xMinYMin meet" x="2131.5" y="-3508.5"/>
</g>
<!-- struct_Label_029acb3333 -->
<g id="node66" class="node"><title>struct_Label_029acb3333</title>
<polygon fill="none" stroke="black" points="2478.5,-3593.5 2478.5,-3624.5 2629.5,-3624.5 2629.5,-3593.5 2478.5,-3593.5"/>
<polygon fill="none" stroke="black" points="2480,-3594 2480,-3623 2505,-3623 2505,-3594 2480,-3594"/>
<text text-anchor="start" x="2486.5" y="-3605.7" font-family="Roboto" font-size="12.00">...</text>
<polygon fill="black" stroke="black" points="2505,-3594 2505,-3623 2507,-3623 2507,-3594 2505,-3594"/>
<polygon fill="black" stroke="black" points="2505,-3623 2505,-3621 2548,-3621 2548,-3623 2505,-3623"/>
<polygon fill="black" stroke="black" points="2548,-3623 2548,-3594 2546,-3594 2546,-3623 2548,-3623"/>
<polygon fill="black" stroke="black" points="2548,-3594 2548,-3596 2505,-3596 2505,-3594 2548,-3594"/>
<text text-anchor="start" x="2513" y="-3605.7" font-family="Roboto" font-size="12.00">Vars</text>
</g>
<!-- struct_Elems_b8eaac412b -->
<g id="node67" class="node"><title>struct_Elems_b8eaac412b</title>
</g>
<!-- _fbf615aa20 -->
<g id="node69" class="node"><title>_fbf615aa20</title>
</g>
<!-- struct_Label_7221a07877 -->
<g id="node71" class="node"><title>struct_Label_7221a07877</title>
<polygon fill="none" stroke="black" points="1103.5,-920.5 1103.5,-951.5 1254.5,-951.5 1254.5,-920.5 1103.5,-920.5"/>
<polygon fill="black" stroke="black" points="1105,-921 1105,-950 1107,-950 1107,-921 1105,-921"/>
<polygon fill="black" stroke="black" points="1105,-950 1105,-948 1171,-948 1171,-950 1105,-950"/>
<polygon fill="black" stroke="black" points="1171,-950 1171,-921 1169,-921 1169,-950 1171,-950"/>
<polygon fill="black" stroke="black" points="1171,-921 1171,-923 1105,-923 1105,-921 1171,-921"/>
<text text-anchor="start" x="1113.5" y="-932.7" font-family="Roboto" font-size="12.00">Spit Info</text>
<polygon fill="none" stroke="black" points="1171,-921 1171,-950 1195,-950 1195,-921 1171,-921"/>
<text text-anchor="start" x="1177" y="-932.7" font-family="Roboto" font-size="12.00">...</text>
</g>
<!-- struct_Elems_2945070dce -->
<g id="node72" class="node"><title>struct_Elems_2945070dce</title>
<image xlink:href="Spit_Spit_Info_Spit_Job_Name.svg" width="200px" height="40px" preserveAspectRatio="xMinYMin meet" x="1079.5" y="-897.5"/>
</g>
<!-- struct_Elems_fa949ea324 -->
<g id="node73" class="node"><title>struct_Elems_fa949ea324</title>
<image xlink:href="Spit_Spit_Info_Spit_Trench_ID.svg" width="200px" height="40px" preserveAspectRatio="xMinYMin meet" x="1079.5" y="-835.5"/>
</g>
<!-- struct_Elems_84c9dbdc1f -->
<g id="node74" class="node"><title>struct_Elems_84c9dbdc1f</title>
</g>
<!-- struct_Elems_9c483b1844 -->
<g id="node75" class="node"><title>struct_Elems_9c483b1844</title>
<image xlink:href="Spit_Spit_Info_Spit_ID.svg" width="200px" height="40px" preserveAspectRatio="xMinYMin meet" x="1079.5" y="-719.5"/>
</g>
<!-- struct_Elems_d31f8498b9 -->
<g id="node76" class="node"><title>struct_Elems_d31f8498b9</title>
<image xlink:href="Spit_Spit_Info_Bucket_Count.svg" width="200px" height="40px" preserveAspectRatio="xMinYMin meet" x="1079.5" y="-657.5"/>
</g>
<!-- struct_Elems_8e6d38be05 -->
<g id="node77" class="node"><title>struct_Elems_8e6d38be05</title>
<image xlink:href="Spit_Spit_Info_Thickness.svg" width="200px" height="40px" preserveAspectRatio="xMinYMin meet" x="1079.5" y="-595.5"/>
</g>
<!-- struct_Elems_49717ab462 -->
<g id="node78" class="node"><title>struct_Elems_49717ab462</title>
<image xlink:href="Spit_Spit_Info_Artefact_Count.svg" width="200px" height="40px" preserveAspectRatio="xMinYMin meet" x="1079.5" y="-533.5"/>
</g>
<!-- struct_Elems_e8d3091fe3 -->
<g id="node79" class="node"><title>struct_Elems_e8d3091fe3</title>
<image xlink:href="Spit_Spit_Info_Artefact_Type.svg" width="200px" height="40px" preserveAspectRatio="xMinYMin meet" x="1079.5" y="-471.5"/>
</g>
<!-- struct_Elems_38deefb42a -->
<g id="node80" class="node"><title>struct_Elems_38deefb42a</title>
<image xlink:href="Spit_Spit_Info_Attach_Photograph.svg" width="200px" height="125px" preserveAspectRatio="xMinYMin meet" x="1079.5" y="-409.5"/>
</g>
<!-- struct_Elems_5c418187a1 -->
<g id="node81" class="node"><title>struct_Elems_5c418187a1</title>
<image xlink:href="Spit_Spit_Info_Button_Attach_Photograph.svg" width="200px" height="40px" preserveAspectRatio="xMinYMin meet" x="1079.5" y="-261.5"/>
</g>
<!-- struct_Elems_b5a84c9940 -->
<g id="node82" class="node"><title>struct_Elems_b5a84c9940</title>
<image xlink:href="Spit_Spit_Info_Notes.svg" width="200px" height="40px" preserveAspectRatio="xMinYMin meet" x="1079.5" y="-199.5"/>
</g>
<!-- struct_Elems_a8e3742b2b -->
<g id="node83" class="node"><title>struct_Elems_a8e3742b2b</title>
<image xlink:href="Spit_Spit_Info_Pantone_ID.svg" width="200px" height="40px" preserveAspectRatio="xMinYMin meet" x="1079.5" y="-137.5"/>
</g>
<!-- struct_Elems_b0f96dbb91 -->
<g id="node84" class="node"><title>struct_Elems_b0f96dbb91</title>
<image xlink:href="Spit_Spit_Info_Color_Name.svg" width="200px" height="40px" preserveAspectRatio="xMinYMin meet" x="1079.5" y="-75.5"/>
</g>
<!-- struct_Label_8c55645982 -->
<g id="node86" class="node"><title>struct_Label_8c55645982</title>
<polygon fill="none" stroke="black" points="1455.5,-920.5 1455.5,-951.5 1606.5,-951.5 1606.5,-920.5 1455.5,-920.5"/>
<polygon fill="none" stroke="black" points="1457,-921 1457,-950 1482,-950 1482,-921 1457,-921"/>
<text text-anchor="start" x="1463.5" y="-932.7" font-family="Roboto" font-size="12.00">...</text>
<polygon fill="black" stroke="black" points="1482,-921 1482,-950 1484,-950 1484,-921 1482,-921"/>
<polygon fill="black" stroke="black" points="1482,-950 1482,-948 1553,-948 1553,-950 1482,-950"/>
<polygon fill="black" stroke="black" points="1553,-950 1553,-921 1551,-921 1551,-950 1553,-950"/>
<polygon fill="black" stroke="black" points="1553,-921 1553,-923 1482,-923 1482,-921 1553,-921"/>
<text text-anchor="start" x="1490" y="-932.7" font-family="Roboto" font-size="12.00">Artefacts</text>
</g>
<!-- struct_Elems_36ec84c71f -->
<g id="node87" class="node"><title>struct_Elems_36ec84c71f</title>
<image xlink:href="Spit_Artefacts_New_Artefact.svg" width="200px" height="40px" preserveAspectRatio="xMinYMin meet" x="1431.5" y="-897.5"/>
</g>
<!-- struct_Elems_e5d008e829 -->
<g id="node88" class="node"><title>struct_Elems_e5d008e829</title>
<image xlink:href="Spit_Artefacts_List_of_Artefacts.svg" width="200px" height="40px" preserveAspectRatio="xMinYMin meet" x="1431.5" y="-835.5"/>
</g>
<!-- _eb7fe0e747 -->
<g id="node90" class="node"><title>_eb7fe0e747</title>
</g>
<!-- struct_Label_b43beaa1c7 -->
<g id="node92" class="node"><title>struct_Label_b43beaa1c7</title>
<polygon fill="none" stroke="black" points="1103.5,-1854.5 1103.5,-1885.5 1254.5,-1885.5 1254.5,-1854.5 1103.5,-1854.5"/>
<polygon fill="black" stroke="black" points="1105,-1855 1105,-1884 1107,-1884 1107,-1855 1105,-1855"/>
<polygon fill="black" stroke="black" points="1105,-1884 1105,-1882 1217,-1882 1217,-1884 1105,-1884"/>
<polygon fill="black" stroke="black" points="1217,-1884 1217,-1855 1215,-1855 1215,-1884 1217,-1884"/>
<polygon fill="black" stroke="black" points="1217,-1855 1217,-1857 1105,-1857 1105,-1855 1217,-1855"/>
<text text-anchor="start" x="1113.5" y="-1866.7" font-family="Roboto" font-size="12.00">Photograph Log</text>
</g>
<!-- struct_Elems_e70f2f1a1f -->
<g id="node93" class="node"><title>struct_Elems_e70f2f1a1f</title>
<image xlink:href="Photograph_log_Photograph_log_PL_Job_Name.svg" width="200px" height="40px" preserveAspectRatio="xMinYMin meet" x="1079.5" y="-1831.5"/>
</g>
<!-- struct_Elems_b7a1892e10 -->
<g id="node94" class="node"><title>struct_Elems_b7a1892e10</title>
<image xlink:href="Photograph_log_Photograph_log_PL_Trench_ID.svg" width="200px" height="40px" preserveAspectRatio="xMinYMin meet" x="1079.5" y="-1769.5"/>
</g>
<!-- struct_Elems_c75b8bebb0 -->
<g id="node95" class="node"><title>struct_Elems_c75b8bebb0</title>
</g>
<!-- struct_Elems_bdf64167cd -->
<g id="node96" class="node"><title>struct_Elems_bdf64167cd</title>
</g>
<!-- struct_Elems_49bb414d69 -->
<g id="node97" class="node"><title>struct_Elems_49bb414d69</title>
<image xlink:href="Photograph_log_Photograph_log_Photograph_reference_ID.svg" width="200px" height="40px" preserveAspectRatio="xMinYMin meet" x="1079.5" y="-1599.5"/>
</g>
<!-- struct_Elems_6de86a5350 -->
<g id="node98" class="node"><title>struct_Elems_6de86a5350</title>
<image xlink:href="Photograph_log_Photograph_log_Scene_Type.svg" width="200px" height="40px" preserveAspectRatio="xMinYMin meet" x="1079.5" y="-1537.5"/>
</g>
<!-- _8a7525b149 -->
<g id="node100" class="node"><title>_8a7525b149</title>
</g>
<!-- struct_Label_a45d95fc08 -->
<g id="node102" class="node"><title>struct_Label_a45d95fc08</title>
<polygon fill="none" stroke="black" points="1103.5,-1387.5 1103.5,-1418.5 1254.5,-1418.5 1254.5,-1387.5 1103.5,-1387.5"/>
<polygon fill="black" stroke="black" points="1105,-1388 1105,-1417 1107,-1417 1107,-1388 1105,-1388"/>
<polygon fill="black" stroke="black" points="1105,-1417 1105,-1415 1157,-1415 1157,-1417 1105,-1417"/>
<polygon fill="black" stroke="black" points="1157,-1417 1157,-1388 1155,-1388 1155,-1417 1157,-1417"/>
<polygon fill="black" stroke="black" points="1157,-1388 1157,-1390 1105,-1390 1105,-1388 1157,-1388"/>
<text text-anchor="start" x="1113.5" y="-1399.7" font-family="Roboto" font-size="12.00">Notes</text>
</g>
<!-- struct_Elems_2318dcad45 -->
<g id="node103" class="node"><title>struct_Elems_2318dcad45</title>
<image xlink:href="Notes_Notes_N_Job_Name.svg" width="200px" height="40px" preserveAspectRatio="xMinYMin meet" x="1079.5" y="-1364.5"/>
</g>
<!-- struct_Elems_1c079cb7fb -->
<g id="node104" class="node"><title>struct_Elems_1c079cb7fb</title>
<image xlink:href="Notes_Notes_N_Trench_ID.svg" width="200px" height="40px" preserveAspectRatio="xMinYMin meet" x="1079.5" y="-1302.5"/>
</g>
<!-- struct_Elems_403da28610 -->
<g id="node105" class="node"><title>struct_Elems_403da28610</title>
</g>
<!-- struct_Elems_07a6cd6caf -->
<g id="node106" class="node"><title>struct_Elems_07a6cd6caf</title>
</g>
<!-- struct_Elems_238cdf6b67 -->
<g id="node107" class="node"><title>struct_Elems_238cdf6b67</title>
<image xlink:href="Notes_Notes_Note_Label.svg" width="200px" height="40px" preserveAspectRatio="xMinYMin meet" x="1079.5" y="-1132.5"/>
</g>
<!-- struct_Elems_a93f27fc91 -->
<g id="node108" class="node"><title>struct_Elems_a93f27fc91</title>
<image xlink:href="Notes_Notes_Note.svg" width="200px" height="40px" preserveAspectRatio="xMinYMin meet" x="1079.5" y="-1070.5"/>
</g>
<!-- _1b0fa42abe -->
<g id="node110" class="node"><title>_1b0fa42abe</title>
</g>
<!-- struct_Label_6495668e54 -->
<g id="node112" class="node"><title>struct_Label_6495668e54</title>
<polygon fill="none" stroke="black" points="51.5,-4453.5 51.5,-4484.5 202.5,-4484.5 202.5,-4453.5 51.5,-4453.5"/>
<polygon fill="black" stroke="black" points="53,-4454 53,-4483 55,-4483 55,-4454 53,-4454"/>
<polygon fill="black" stroke="black" points="53,-4483 53,-4481 118,-4481 118,-4483 53,-4483"/>
<polygon fill="black" stroke="black" points="118,-4483 118,-4454 116,-4454 116,-4483 118,-4483"/>
<polygon fill="black" stroke="black" points="118,-4454 118,-4456 53,-4456 53,-4454 118,-4454"/>
<text text-anchor="start" x="61.5" y="-4465.7" font-family="Roboto" font-size="12.00">Artefact</text>
</g>
<!-- struct_Elems_be54949857 -->
<g id="node113" class="node"><title>struct_Elems_be54949857</title>
<image xlink:href="Artefact_Artefact_Artefact_Spit_ID.svg" width="200px" height="40px" preserveAspectRatio="xMinYMin meet" x="27.5" y="-4430.5"/>
</g>
<!-- struct_Elems_1b8465aede -->
<g id="node114" class="node"><title>struct_Elems_1b8465aede</title>
<image xlink:href="Artefact_Artefact_Artefact_ID.svg" width="200px" height="40px" preserveAspectRatio="xMinYMin meet" x="27.5" y="-4368.5"/>
</g>
<!-- struct_Elems_1ebc709910 -->
<g id="node115" class="node"><title>struct_Elems_1ebc709910</title>
<image xlink:href="Artefact_Artefact_X.svg" width="200px" height="40px" preserveAspectRatio="xMinYMin meet" x="27.5" y="-4306.5"/>
</g>
<!-- struct_Elems_653a567fa0 -->
<g id="node116" class="node"><title>struct_Elems_653a567fa0</title>
<image xlink:href="Artefact_Artefact_Y.svg" width="200px" height="40px" preserveAspectRatio="xMinYMin meet" x="27.5" y="-4244.5"/>
</g>
<!-- struct_Elems_d96e565e8b -->
<g id="node117" class="node"><title>struct_Elems_d96e565e8b</title>
<image xlink:href="Artefact_Artefact_Z.svg" width="200px" height="40px" preserveAspectRatio="xMinYMin meet" x="27.5" y="-4182.5"/>
</g>
<!-- struct_Elems_721aa31c76 -->
<g id="node118" class="node"><title>struct_Elems_721aa31c76</title>
<image xlink:href="Artefact_Artefact_Description.svg" width="200px" height="40px" preserveAspectRatio="xMinYMin meet" x="27.5" y="-4120.5"/>
</g>
<!-- struct_Elems_8d9bba85e5 -->
<g id="node119" class="node"><title>struct_Elems_8d9bba85e5</title>
<image xlink:href="Artefact_Artefact_Artefact_Class.svg" width="200px" height="40px" preserveAspectRatio="xMinYMin meet" x="27.5" y="-4058.5"/>
</g>
<!-- struct_Elems_5f74b7ffe8 -->
<g id="node120" class="node"><title>struct_Elems_5f74b7ffe8</title>
<image xlink:href="Artefact_Artefact_Artefact_Measurement.svg" width="200px" height="40px" preserveAspectRatio="xMinYMin meet" x="27.5" y="-3996.5"/>
</g>
<!-- _b512d97e7c&#45;&gt;_32d7e82082 -->
<!-- struct_Elems_639e8cc20c&#45;&gt;struct_Label_343d4724ee -->
<g id="edge52" class="edge"><title>struct_Elems_639e8cc20c:_639e8cc20c&#45;&gt;struct_Label_343d4724ee</title>
<path fill="none" stroke="black" d="M230.086,-3825.29C239.732,-3831.18 246,-3835 246,-3835 246,-3835 358,-4083 358,-4083 358,-4083 372.511,-4086.9 391.399,-4091.98"/>
<polygon fill="black" stroke="black" points="390.733,-4095.43 401.298,-4094.64 392.55,-4088.67 390.733,-4095.43"/>
</g>
<!-- _32d7e82082&#45;&gt;_e1d2439aa6 -->
<!-- _32d7e82082&#45;&gt;_fbf615aa20 -->
<!-- struct_Label_343d4724ee&#45;&gt;struct_Label_e03e1cf1ae -->
<g id="edge24" class="edge"><title>struct_Label_343d4724ee&#45;&gt;struct_Label_e03e1cf1ae</title>
<path fill="none" stroke="black" d="M552.514,-4115C607.965,-4115 683.371,-4115 741.118,-4115"/>
<polygon fill="black" stroke="black" points="741.32,-4118.5 751.32,-4115 741.32,-4111.5 741.32,-4118.5"/>
</g>
<!-- struct_Elems_d1b5ccddef&#45;&gt;struct_Label_b4a25f5730 -->
<g id="edge54" class="edge"><title>struct_Elems_d1b5ccddef:_d1b5ccddef&#45;&gt;struct_Label_b4a25f5730</title>
<path fill="none" stroke="black" d="M558.811,-3842.96C575.441,-3838.43 588,-3835 588,-3835 588,-3835 738.024,-3693.14 800.349,-3634.2"/>
<polygon fill="black" stroke="black" points="802.984,-3636.53 807.846,-3627.11 798.175,-3631.44 802.984,-3636.53"/>
</g>
<!-- struct_Label_e03e1cf1ae&#45;&gt;struct_Label_b5348d5536 -->
<g id="edge26" class="edge"><title>struct_Label_e03e1cf1ae&#45;&gt;struct_Label_b5348d5536</title>
<path fill="none" stroke="black" d="M902.513,-4115C958.445,-4115 1034.74,-4115 1093.02,-4115"/>
<polygon fill="black" stroke="black" points="1093.31,-4118.5 1103.31,-4115 1093.31,-4111.5 1093.31,-4118.5"/>
</g>
<!-- struct_Elems_4e003d6469&#45;&gt;struct_Label_7221a07877 -->
<g id="edge56" class="edge"><title>struct_Elems_4e003d6469:_4e003d6469&#45;&gt;struct_Label_7221a07877</title>
<path fill="none" stroke="black" d="M908.811,-4033.96C925.441,-4029.43 938,-4026 938,-4026 938,-4026 1060,-999 1060,-999 1060,-999 1101.91,-976.812 1135.99,-958.772"/>
<polygon fill="black" stroke="black" points="1137.7,-961.825 1144.9,-954.053 1134.42,-955.639 1137.7,-961.825"/>
</g>
<!-- _e1d2439aa6&#45;&gt;_fbf615aa20 -->
<!-- _e1d2439aa6&#45;&gt;_eb7fe0e747 -->
<!-- _e1d2439aa6&#45;&gt;_8a7525b149 -->
<!-- struct_Label_b4a25f5730&#45;&gt;struct_Label_fdad8221b7 -->
<g id="edge28" class="edge"><title>struct_Label_b4a25f5730&#45;&gt;struct_Label_fdad8221b7</title>
<path fill="none" stroke="black" d="M902.513,-3609C958.445,-3609 1034.74,-3609 1093.02,-3609"/>
<polygon fill="black" stroke="black" points="1093.31,-3612.5 1103.31,-3609 1093.31,-3605.5 1093.31,-3612.5"/>
</g>
<!-- struct_Label_fdad8221b7&#45;&gt;struct_Label_ead43c5f26 -->
<g id="edge30" class="edge"><title>struct_Label_fdad8221b7&#45;&gt;struct_Label_ead43c5f26</title>
<path fill="none" stroke="black" d="M1254.51,-3609C1310.44,-3609 1386.74,-3609 1445.02,-3609"/>
<polygon fill="black" stroke="black" points="1445.31,-3612.5 1455.31,-3609 1445.31,-3605.5 1445.31,-3612.5"/>
</g>
<!-- struct_Label_ead43c5f26&#45;&gt;struct_Label_c1d0c57359 -->
<g id="edge32" class="edge"><title>struct_Label_ead43c5f26&#45;&gt;struct_Label_c1d0c57359</title>
<path fill="none" stroke="black" d="M1606.51,-3609C1661.96,-3609 1737.37,-3609 1795.12,-3609"/>
<polygon fill="black" stroke="black" points="1795.32,-3612.5 1805.32,-3609 1795.32,-3605.5 1795.32,-3612.5"/>
</g>
<!-- struct_Elems_f96e494002&#45;&gt;struct_Label_7221a07877 -->
<g id="edge58" class="edge"><title>struct_Elems_f96e494002:_f96e494002&#45;&gt;struct_Label_7221a07877</title>
<path fill="none" stroke="black" d="M1449.72,-3527.96C1432.79,-3523.43 1420,-3520 1420,-3520 1420,-3520 1300,-999 1300,-999 1300,-999 1257.39,-976.812 1222.74,-958.772"/>
<polygon fill="black" stroke="black" points="1224.16,-955.567 1213.67,-954.053 1220.93,-961.776 1224.16,-955.567"/>
</g>
<!-- struct_Label_c1d0c57359&#45;&gt;struct_Label_752b2f4d04 -->
<g id="edge34" class="edge"><title>struct_Label_c1d0c57359&#45;&gt;struct_Label_752b2f4d04</title>
<path fill="none" stroke="black" d="M1956.51,-3609C2011.96,-3609 2087.37,-3609 2145.12,-3609"/>
<polygon fill="black" stroke="black" points="2145.32,-3612.5 2155.32,-3609 2145.32,-3605.5 2145.32,-3612.5"/>
</g>
<!-- struct_Elems_cea508e93e&#45;&gt;struct_Label_b43beaa1c7 -->
<g id="edge60" class="edge"><title>struct_Elems_cea508e93e:_cea508e93e&#45;&gt;struct_Label_b43beaa1c7</title>
<path fill="none" stroke="black" d="M1799.72,-3527.96C1782.79,-3523.43 1770,-3520 1770,-3520 1770,-3520 1650,-782 1650,-782 1650,-782 1420,-782 1420,-782 1420,-782 1300,-1843 1300,-1843 1300,-1843 1284.39,-1846.48 1264.39,-1850.95"/>
<polygon fill="black" stroke="black" points="1263.6,-1847.54 1254.6,-1853.13 1265.12,-1854.37 1263.6,-1847.54"/>
</g>
<!-- struct_Label_752b2f4d04&#45;&gt;struct_Label_029acb3333 -->
<g id="edge36" class="edge"><title>struct_Label_752b2f4d04&#45;&gt;struct_Label_029acb3333</title>
<path fill="none" stroke="black" d="M2306.73,-3609C2355.14,-3609 2418.03,-3609 2468.27,-3609"/>
<polygon fill="black" stroke="black" points="2468.47,-3612.5 2478.47,-3609 2468.47,-3605.5 2468.47,-3612.5"/>
</g>
<!-- struct_Elems_8c40614796&#45;&gt;struct_Label_a45d95fc08 -->
<g id="edge62" class="edge"><title>struct_Elems_8c40614796:_8c40614796&#45;&gt;struct_Label_a45d95fc08</title>
<path fill="none" stroke="black" d="M2149.72,-3527.96C2132.79,-3523.43 2120,-3520 2120,-3520 2120,-3520 1650,-778 1650,-778 1650,-778 1420,-778 1420,-778 1420,-778 1300,-1376 1300,-1376 1300,-1376 1284.39,-1379.48 1264.39,-1383.95"/>
<polygon fill="black" stroke="black" points="1263.6,-1380.54 1254.6,-1386.13 1265.12,-1387.37 1263.6,-1380.54"/>
</g>
<!-- struct_Label_7221a07877&#45;&gt;struct_Label_8c55645982 -->
<g id="edge38" class="edge"><title>struct_Label_7221a07877&#45;&gt;struct_Label_8c55645982</title>
<path fill="none" stroke="black" d="M1254.51,-936C1310.44,-936 1386.74,-936 1445.02,-936"/>
<polygon fill="black" stroke="black" points="1445.31,-939.5 1455.31,-936 1445.31,-932.5 1445.31,-939.5"/>
</g>
</g>
</svg>
